<?xml version="1.0" encoding="UTF-8" standalone="no"?>
<!DOCTYPE svg PUBLIC "-//W3C//DTD SVG 1.1//EN"
 "http://www.w3.org/Graphics/SVG/1.1/DTD/svg11.dtd">
<!-- Generated by graphviz version 14.0.2 (20251019.1705)
 -->
<!-- Title: msg::DCtypeString Pages: 1 -->
<svg width="500pt" height="190pt"
 viewBox="0.00 0.00 500.00 190.00" xmlns="http://www.w3.org/2000/svg" xmlns:xlink="http://www.w3.org/1999/xlink">

<svg id="main" version="1.1" xmlns="http://www.w3.org/2000/svg" xmlns:xlink="http://www.w3.org/1999/xlink" xml:space="preserve" onload="init(evt)">
<style type="text/css"><![CDATA[
.node, .edge {opacity: 0.7;}
.node.selected, .edge.selected {opacity: 1;}
.edge:hover path { stroke: red; }
.edge:hover polygon { stroke: red; fill: red; }
]]></style>
<script type="application/ecmascript" xlink:href="../../svg.min.js"/>
<svg id="graph" class="graph">
<g id="graph0" class="graph" transform="scale(1 1) rotate(0) translate(4 186)">
<title>msg::DCtypeString</title>
<!-- Node1 -->
<g id="Node000001" class="node">
<title>Node1</title>
<g id="a_Node000001"><a xlink:title=" ">
<polygon fill="#999999" stroke="#666666" points="492,-101 392,-101 392,-81 492,-81 492,-101"/>
<text xml:space="preserve" text-anchor="middle" x="442" y="-87.5" font-family="Helvetica,sans-Serif" font-size="10.00">msg::DCtypeString</text>
</a>
</g>
</g>
<!-- Node2 -->
<g id="Node000002" class="node">
<title>Node2</title>
<g id="a_Node000002"><a xlink:href="../../da/d21/class_network_manager.html#a53df93ad0cb0498c82f866a921e7b285" target="_top" xlink:title=" ">
<polygon fill="white" stroke="#666666" points="356,-182 208,-182 208,-150 356,-150 356,-182"/>
<text xml:space="preserve" text-anchor="start" x="216" y="-168.5" font-family="Helvetica,sans-Serif" font-size="10.00">NetworkManager::decodeRaw</text>
<text xml:space="preserve" text-anchor="middle" x="282" y="-156.5" font-family="Helvetica,sans-Serif" font-size="10.00">GameBuffer</text>
</a>
</g>
</g>
<!-- Node1&#45;&gt;Node2 -->
<g id="edge1_Node000001_Node000002" class="edge">
<title>Node1&#45;&gt;Node2</title>
<g id="a_edge1_Node000001_Node000002"><a xlink:title=" ">
<path fill="none" stroke="#63b8ff" d="M416.05,-107.49C399.48,-117.97 377,-131.35 356,-141 349.43,-144.02 342.38,-146.88 335.35,-149.51"/>
<polygon fill="#63b8ff" stroke="#63b8ff" points="417.74,-110.56 424.26,-102.21 413.96,-104.67 417.74,-110.56"/>
</a>
</g>
</g>
<!-- Node5 -->
<g id="Node000005" class="node">
<title>Node5</title>
<g id="a_Node000005"><a xlink:href="../../da/d21/class_network_manager.html#adea6a8bf4c034a65775aa7a8f9d2e8a2" target="_top" xlink:title=" ">
<polygon fill="white" stroke="#666666" points="356,-132 208,-132 208,-100 356,-100 356,-132"/>
<text xml:space="preserve" text-anchor="start" x="216" y="-118.5" font-family="Helvetica,sans-Serif" font-size="10.00">NetworkManager::decodeRaw</text>
<text xml:space="preserve" text-anchor="middle" x="282" y="-106.5" font-family="Helvetica,sans-Serif" font-size="10.00">MarkerMoveBuffer</text>
</a>
</g>
</g>
<!-- Node1&#45;&gt;Node5 -->
<g id="edge4_Node000001_Node000005" class="edge">
<title>Node1&#45;&gt;Node5</title>
<g id="a_edge4_Node000001_Node000005"><a xlink:title=" ">
<path fill="none" stroke="#63b8ff" d="M380.55,-100.56C372.67,-101.81 364.52,-103.1 356.46,-104.38"/>
<polygon fill="#63b8ff" stroke="#63b8ff" points="381.05,-104.03 390.38,-99.01 379.95,-97.12 381.05,-104.03"/>
</a>
</g>
</g>
<!-- Node6 -->
<g id="Node000006" class="node">
<title>Node6</title>
<g id="a_Node000006"><a xlink:href="../../da/d21/class_network_manager.html#a40a38591b24f2d04217a8df97c2fbe72" target="_top" xlink:title=" ">
<polygon fill="white" stroke="#666666" points="356,-82 208,-82 208,-50 356,-50 356,-82"/>
<text xml:space="preserve" text-anchor="start" x="216" y="-68.5" font-family="Helvetica,sans-Serif" font-size="10.00">NetworkManager::decodeRaw</text>
<text xml:space="preserve" text-anchor="middle" x="282" y="-56.5" font-family="Helvetica,sans-Serif" font-size="10.00">NotesBuffer</text>
</a>
</g>
</g>
<!-- Node1&#45;&gt;Node6 -->
<g id="edge7_Node000001_Node000006" class="edge">
<title>Node1&#45;&gt;Node6</title>
<g id="a_edge7_Node000001_Node000006"><a xlink:title=" ">
<path fill="none" stroke="#63b8ff" d="M380.55,-81.44C372.67,-80.19 364.52,-78.9 356.46,-77.62"/>
<polygon fill="#63b8ff" stroke="#63b8ff" points="379.95,-84.88 390.38,-82.99 381.05,-77.97 379.95,-84.88"/>
</a>
</g>
</g>
<!-- Node7 -->
<g id="Node000007" class="node">
<title>Node7</title>
<g id="a_Node000007"><a xlink:href="../../df/d93/class_game_table_manager.html#a8967546a2319d4f7a8e51c58bee4e469" target="_top" xlink:title=" ">
<polygon fill="white" stroke="#666666" points="353.75,-32 210.25,-32 210.25,0 353.75,0 353.75,-32"/>
<text xml:space="preserve" text-anchor="start" x="218.25" y="-18.5" font-family="Helvetica,sans-Serif" font-size="10.00">GameTableManager::process</text>
<text xml:space="preserve" text-anchor="middle" x="282" y="-6.5" font-family="Helvetica,sans-Serif" font-size="10.00">ReceivedMessages</text>
</a>
</g>
</g>
<!-- Node1&#45;&gt;Node7 -->
<g id="edge10_Node000001_Node000007" class="edge">
<title>Node1&#45;&gt;Node7</title>
<g id="a_edge10_Node000001_Node000007"><a xlink:title=" ">
<path fill="none" stroke="#63b8ff" d="M416.05,-74.51C399.48,-64.03 377,-50.65 356,-41 349.43,-37.98 342.38,-35.12 335.35,-32.49"/>
<polygon fill="#63b8ff" stroke="#63b8ff" points="413.96,-77.33 424.26,-79.79 417.74,-71.44 413.96,-77.33"/>
</a>
</g>
</g>
<!-- Node3 -->
<g id="Node000003" class="node">
<title>Node3</title>
<g id="a_Node000003"><a xlink:href="../../da/d21/class_network_manager.html#ad3605b8b33fa44492458d0aaffb4dec8" target="_top" xlink:title=" ">
<polygon fill="white" stroke="#666666" points="172,-148 0,-148 0,-128 172,-128 172,-148"/>
<text xml:space="preserve" text-anchor="middle" x="86" y="-134.5" font-family="Helvetica,sans-Serif" font-size="10.00">NetworkManager::drainInboundRaw</text>
</a>
</g>
</g>
<!-- Node2&#45;&gt;Node3 -->
<g id="edge2_Node000002_Node000003" class="edge">
<title>Node2&#45;&gt;Node3</title>
<g id="a_edge2_Node000002_Node000003"><a xlink:title=" ">
<path fill="none" stroke="#63b8ff" d="M196.44,-153.8C184.12,-152.02 171.53,-150.2 159.48,-148.46"/>
<polygon fill="#63b8ff" stroke="#63b8ff" points="195.76,-157.23 206.16,-155.2 196.76,-150.31 195.76,-157.23"/>
</a>
</g>
</g>
<!-- Node4 -->
<g id="Node000004" class="node">
<title>Node4</title>
<g id="a_Node000004"><a xlink:href="../../da/d21/class_network_manager.html#a3289708df965193b6ec0287eb069b276" target="_top" xlink:title=" ">
<polygon fill="white" stroke="#666666" points="154,-110 18,-110 18,-78 154,-78 154,-110"/>
<text xml:space="preserve" text-anchor="start" x="26" y="-96.5" font-family="Helvetica,sans-Serif" font-size="10.00">NetworkManager::startRaw</text>
<text xml:space="preserve" text-anchor="middle" x="86" y="-84.5" font-family="Helvetica,sans-Serif" font-size="10.00">DrainWorker</text>
</a>
</g>
</g>
<!-- Node2&#45;&gt;Node4 -->
<g id="edge3_Node000002_Node000004" class="edge">
<title>Node2&#45;&gt;Node4</title>
<g id="a_edge3_Node000002_Node000004"><a xlink:title=" ">
<path fill="none" stroke="#63b8ff" d="M218.12,-145.47C214.67,-144.03 211.27,-142.54 208,-141 191.03,-133.03 189.14,-126.6 172,-119 164.97,-115.88 157.44,-113.03 149.88,-110.46"/>
<polygon fill="#63b8ff" stroke="#63b8ff" points="216.61,-148.63 227.2,-149.06 219.18,-142.12 216.61,-148.63"/>
</a>
</g>
</g>
<!-- Node5&#45;&gt;Node3 -->
<g id="edge5_Node000005_Node000003" class="edge">
<title>Node5&#45;&gt;Node3</title>
<g id="a_edge5_Node000005_Node000003"><a xlink:title=" ">
<path fill="none" stroke="#63b8ff" d="M196.23,-125.61C188.36,-126.51 180.38,-127.41 172.5,-128.3"/>
<polygon fill="#63b8ff" stroke="#63b8ff" points="196.61,-129.09 206.15,-124.49 195.82,-122.14 196.61,-129.09"/>
</a>
</g>
</g>
<!-- Node5&#45;&gt;Node4 -->
<g id="edge6_Node000005_Node000004" class="edge">
<title>Node5&#45;&gt;Node4</title>
<g id="a_edge6_Node000005_Node000004"><a xlink:title=" ">
<path fill="none" stroke="#63b8ff" d="M196.47,-106.41C182.39,-104.82 167.95,-103.18 154.38,-101.64"/>
<polygon fill="#63b8ff" stroke="#63b8ff" points="195.82,-109.86 206.15,-107.51 196.61,-102.91 195.82,-109.86"/>
</a>
</g>
</g>
<!-- Node6&#45;&gt;Node3 -->
<g id="edge8_Node000006_Node000003" class="edge">
<title>Node6&#45;&gt;Node3</title>
<g id="a_edge8_Node000006_Node000003"><a xlink:title=" ">
<path fill="none" stroke="#63b8ff" d="M215.81,-87.06C213.14,-88.32 210.53,-89.63 208,-91 190.17,-100.64 190.33,-110.36 172,-119 164.75,-122.42 156.86,-125.23 148.9,-127.55"/>
<polygon fill="#63b8ff" stroke="#63b8ff" points="217.17,-90.29 224.94,-83.09 214.37,-83.87 217.17,-90.29"/>
</a>
</g>
</g>
<!-- Node6&#45;&gt;Node4 -->
<g id="edge9_Node000006_Node000004" class="edge">
<title>Node6&#45;&gt;Node4</title>
<g id="a_edge9_Node000006_Node000004"><a xlink:title=" ">
<path fill="none" stroke="#63b8ff" d="M196.47,-78.2C182.39,-80.23 167.95,-82.32 154.38,-84.28"/>
<polygon fill="#63b8ff" stroke="#63b8ff" points="196.76,-81.69 206.16,-76.8 195.76,-74.77 196.76,-81.69"/>
</a>
</g>
</g>
</g>
</svg>
</svg>

<style type='text/css'>
<![CDATA[
[data-mouse-over-selected='false'] { opacity: 0.7; }
[data-mouse-over-selected='true']  { opacity: 1.0; }
]]>
</style>
<script type="application/ecmascript"><![CDATA[
document.addEventListener('DOMContentLoaded', (event) => {
  highlightEdges();
  highlightAdjacentNodes();
});
]]></script>
</svg>
