<?xml version="1.0" encoding="UTF-8" standalone="no"?>
<!DOCTYPE svg PUBLIC "-//W3C//DTD SVG 1.1//EN"
 "http://www.w3.org/Graphics/SVG/1.1/DTD/svg11.dtd">
<!-- Generated by graphviz version 14.0.2 (20251019.1705)
 -->
<!-- Title: msg::DCTypeToJson Pages: 1 -->
<svg width="1181pt" height="258pt"
 viewBox="0.00 0.00 1181.00 258.00" xmlns="http://www.w3.org/2000/svg" xmlns:xlink="http://www.w3.org/1999/xlink">
<g id="graph0" class="graph" transform="scale(1 1) rotate(0) translate(4 254)">
<title>msg::DCTypeToJson</title>
<!-- Node1 -->
<g id="Node000001" class="node">
<title>Node1</title>
<g id="a_Node000001"><a xlink:title=" ">
<polygon fill="#999999" stroke="#666666" points="1172.5,-193 1064.25,-193 1064.25,-173 1172.5,-173 1172.5,-193"/>
<text xml:space="preserve" text-anchor="middle" x="1118.38" y="-179.5" font-family="Helvetica,sans-Serif" font-size="10.00">msg::DCTypeToJson</text>
</a>
</g>
</g>
<!-- Node2 -->
<g id="Node000002" class="node">
<title>Node2</title>
<g id="a_Node000002"><a xlink:href="../../d5/d64/namespacemsg.html#a986d7467e1d491d12ceeb5861dedbeab" target="_top" xlink:title=" ">
<polygon fill="white" stroke="#666666" points="1027.12,-250 885.88,-250 885.88,-230 1027.12,-230 1027.12,-250"/>
<text xml:space="preserve" text-anchor="middle" x="956.5" y="-236.5" font-family="Helvetica,sans-Serif" font-size="10.00">msg::makeChatGroupCreate</text>
</a>
</g>
</g>
<!-- Node1&#45;&gt;Node2 -->
<g id="edge1_Node000001_Node000002" class="edge">
<title>Node1&#45;&gt;Node2</title>
<g id="a_edge1_Node000001_Node000002"><a xlink:title=" ">
<path fill="none" stroke="#63b8ff" d="M1085.04,-198.09C1068.31,-205.56 1047.42,-214.38 1028.25,-221 1019.35,-224.07 1009.69,-226.96 1000.44,-229.51"/>
<polygon fill="#63b8ff" stroke="#63b8ff" points="1086.33,-201.35 1093.99,-194.03 1083.44,-194.97 1086.33,-201.35"/>
</a>
</g>
</g>
<!-- Node7 -->
<g id="Node000007" class="node">
<title>Node7</title>
<g id="a_Node000007"><a xlink:href="../../d5/d64/namespacemsg.html#afe9573aed063a0e6b1aa59c451c26e9e" target="_top" xlink:title=" ">
<polygon fill="white" stroke="#666666" points="1026.75,-212 886.25,-212 886.25,-192 1026.75,-192 1026.75,-212"/>
<text xml:space="preserve" text-anchor="middle" x="956.5" y="-198.5" font-family="Helvetica,sans-Serif" font-size="10.00">msg::makeChatGroupDelete</text>
</a>
</g>
</g>
<!-- Node1&#45;&gt;Node7 -->
<g id="edge6_Node000001_Node000007" class="edge">
<title>Node1&#45;&gt;Node7</title>
<g id="a_edge6_Node000001_Node000007"><a xlink:title=" ">
<path fill="none" stroke="#63b8ff" d="M1052.76,-190.68C1044.28,-191.69 1035.56,-192.72 1027,-193.74"/>
<polygon fill="#63b8ff" stroke="#63b8ff" points="1053.12,-194.16 1062.64,-189.51 1052.29,-187.21 1053.12,-194.16"/>
</a>
</g>
</g>
<!-- Node10 -->
<g id="Node000010" class="node">
<title>Node10</title>
<g id="a_Node000010"><a xlink:href="../../d5/d64/namespacemsg.html#a24e8339bdeb6b6a9847b7134e8e016ad" target="_top" xlink:title=" ">
<polygon fill="white" stroke="#666666" points="1028.25,-174 884.75,-174 884.75,-154 1028.25,-154 1028.25,-174"/>
<text xml:space="preserve" text-anchor="middle" x="956.5" y="-160.5" font-family="Helvetica,sans-Serif" font-size="10.00">msg::makeChatGroupUpdate</text>
</a>
</g>
</g>
<!-- Node1&#45;&gt;Node10 -->
<g id="edge10_Node000001_Node000010" class="edge">
<title>Node1&#45;&gt;Node10</title>
<g id="a_edge10_Node000001_Node000010"><a xlink:title=" ">
<path fill="none" stroke="#63b8ff" d="M1052.74,-175.32C1044.83,-174.38 1036.71,-173.41 1028.71,-172.46"/>
<polygon fill="#63b8ff" stroke="#63b8ff" points="1052.29,-178.79 1062.64,-176.49 1053.12,-171.84 1052.29,-178.79"/>
</a>
</g>
</g>
<!-- Node14 -->
<g id="Node000014" class="node">
<title>Node14</title>
<g id="a_Node000014"><a xlink:href="../../d5/d64/namespacemsg.html#a0969cd8a8185332490b7ecde9021086a" target="_top" xlink:title=" ">
<polygon fill="white" stroke="#666666" points="1019.25,-114 893.75,-114 893.75,-94 1019.25,-94 1019.25,-114"/>
<text xml:space="preserve" text-anchor="middle" x="956.5" y="-100.5" font-family="Helvetica,sans-Serif" font-size="10.00">msg::makeChatMessage</text>
</a>
</g>
</g>
<!-- Node1&#45;&gt;Node14 -->
<g id="edge16_Node000001_Node000014" class="edge">
<title>Node1&#45;&gt;Node14</title>
<g id="a_edge16_Node000001_Node000014"><a xlink:title=" ">
<path fill="none" stroke="#63b8ff" d="M1086.06,-167.53C1054.3,-151.83 1006.03,-127.98 978.56,-114.41"/>
<polygon fill="#63b8ff" stroke="#63b8ff" points="1084.27,-170.55 1094.79,-171.84 1087.37,-164.27 1084.27,-170.55"/>
</a>
</g>
</g>
<!-- Node3 -->
<g id="Node000003" class="node">
<title>Node3</title>
<g id="a_Node000003"><a xlink:href="../../d8/d37/class_chat_manager.html#ac536f46038a4bf7d308ad8e01ce12c76" target="_top" xlink:title=" ">
<polygon fill="white" stroke="#666666" points="846.12,-250 691.38,-250 691.38,-230 846.12,-230 846.12,-250"/>
<text xml:space="preserve" text-anchor="middle" x="768.75" y="-236.5" font-family="Helvetica,sans-Serif" font-size="10.00">ChatManager::emitGroupCreate</text>
</a>
</g>
</g>
<!-- Node2&#45;&gt;Node3 -->
<g id="edge2_Node000002_Node000003" class="edge">
<title>Node2&#45;&gt;Node3</title>
<g id="a_edge2_Node000002_Node000003"><a xlink:title=" ">
<path fill="none" stroke="#63b8ff" d="M874.05,-240C864.89,-240 855.58,-240 846.49,-240"/>
<polygon fill="#63b8ff" stroke="#63b8ff" points="874.03,-243.5 884.03,-240 874.03,-236.5 874.03,-243.5"/>
</a>
</g>
</g>
<!-- Node4 -->
<g id="Node000004" class="node">
<title>Node4</title>
<g id="a_Node000004"><a xlink:href="../../d8/d37/class_chat_manager.html#a39192cb28eae0d798fa923a30302afa0" target="_top" xlink:title=" ">
<polygon fill="white" stroke="#666666" points="645.62,-249 508.88,-249 508.88,-217 645.62,-217 645.62,-249"/>
<text xml:space="preserve" text-anchor="start" x="516.88" y="-235.5" font-family="Helvetica,sans-Serif" font-size="10.00">ChatManager::renderCreate</text>
<text xml:space="preserve" text-anchor="middle" x="577.25" y="-223.5" font-family="Helvetica,sans-Serif" font-size="10.00">GroupPopup</text>
</a>
</g>
</g>
<!-- Node3&#45;&gt;Node4 -->
<g id="edge3_Node000003_Node000004" class="edge">
<title>Node3&#45;&gt;Node4</title>
<g id="a_edge3_Node000003_Node000004"><a xlink:title=" ">
<path fill="none" stroke="#63b8ff" d="M679.7,-236.75C668.38,-236.33 656.94,-235.91 646.02,-235.5"/>
<polygon fill="#63b8ff" stroke="#63b8ff" points="679.31,-240.24 689.43,-237.11 679.57,-233.24 679.31,-240.24"/>
</a>
</g>
</g>
<!-- Node5 -->
<g id="Node000005" class="node">
<title>Node5</title>
<g id="a_Node000005"><a xlink:href="../../d8/d37/class_chat_manager.html#afb35f5cfd70af565c23555f8652cacf3" target="_top" xlink:title=" ">
<polygon fill="white" stroke="#666666" points="462.38,-165 313.62,-165 313.62,-145 462.38,-145 462.38,-165"/>
<text xml:space="preserve" text-anchor="middle" x="388" y="-151.5" font-family="Helvetica,sans-Serif" font-size="10.00">ChatManager::renderLeftPanel</text>
</a>
</g>
</g>
<!-- Node4&#45;&gt;Node5 -->
<g id="edge4_Node000004_Node000005" class="edge">
<title>Node4&#45;&gt;Node5</title>
<g id="a_edge4_Node000004_Node000005"><a xlink:title=" ">
<path fill="none" stroke="#63b8ff" d="M520.54,-212.47C514.18,-210 507.81,-207.48 501.75,-205 470.04,-192.02 433.93,-175.74 411.3,-165.35"/>
<polygon fill="#63b8ff" stroke="#63b8ff" points="519.17,-215.69 529.76,-216 521.67,-209.15 519.17,-215.69"/>
</a>
</g>
</g>
<!-- Node6 -->
<g id="Node000006" class="node">
<title>Node6</title>
<g id="a_Node000006"><a xlink:href="../../d8/d37/class_chat_manager.html#ae22b90f106a6b559be6533fda6c54fa5" target="_top" xlink:title=" ">
<polygon fill="white" stroke="#666666" points="107.5,-99 0,-99 0,-79 107.5,-79 107.5,-99"/>
<text xml:space="preserve" text-anchor="middle" x="53.75" y="-85.5" font-family="Helvetica,sans-Serif" font-size="10.00">ChatManager::render</text>
</a>
</g>
</g>
<!-- Node5&#45;&gt;Node6 -->
<g id="edge5_Node000005_Node000006" class="edge">
<title>Node5&#45;&gt;Node6</title>
<g id="a_edge5_Node000005_Node000006"><a xlink:title=" ">
<path fill="none" stroke="#63b8ff" d="M323.42,-142.37C260.73,-129.92 166.04,-111.11 107.42,-99.46"/>
<polygon fill="#63b8ff" stroke="#63b8ff" points="322.38,-145.73 332.87,-144.25 323.74,-138.87 322.38,-145.73"/>
</a>
</g>
</g>
<!-- Node8 -->
<g id="Node000008" class="node">
<title>Node8</title>
<g id="a_Node000008"><a xlink:href="../../d8/d37/class_chat_manager.html#afc539f60f939c905374f1f4e937b94fe" target="_top" xlink:title=" ">
<polygon fill="white" stroke="#666666" points="845.75,-212 691.75,-212 691.75,-192 845.75,-192 845.75,-212"/>
<text xml:space="preserve" text-anchor="middle" x="768.75" y="-198.5" font-family="Helvetica,sans-Serif" font-size="10.00">ChatManager::emitGroupDelete</text>
</a>
</g>
</g>
<!-- Node7&#45;&gt;Node8 -->
<g id="edge7_Node000007_Node000008" class="edge">
<title>Node7&#45;&gt;Node8</title>
<g id="a_edge7_Node000007_Node000008"><a xlink:title=" ">
<path fill="none" stroke="#63b8ff" d="M874.42,-202C865,-202 855.42,-202 846.06,-202"/>
<polygon fill="#63b8ff" stroke="#63b8ff" points="874.29,-205.5 884.29,-202 874.29,-198.5 874.29,-205.5"/>
</a>
</g>
</g>
<!-- Node9 -->
<g id="Node000009" class="node">
<title>Node9</title>
<g id="a_Node000009"><a xlink:href="../../d8/d37/class_chat_manager.html#a9526a187231f0c74492dfc0c575f3afa" target="_top" xlink:title=" ">
<polygon fill="white" stroke="#666666" points="645.25,-196 509.25,-196 509.25,-164 645.25,-164 645.25,-196"/>
<text xml:space="preserve" text-anchor="start" x="517.25" y="-182.5" font-family="Helvetica,sans-Serif" font-size="10.00">ChatManager::renderDelete</text>
<text xml:space="preserve" text-anchor="middle" x="577.25" y="-170.5" font-family="Helvetica,sans-Serif" font-size="10.00">GroupPopup</text>
</a>
</g>
</g>
<!-- Node8&#45;&gt;Node9 -->
<g id="edge8_Node000008_Node000009" class="edge">
<title>Node8&#45;&gt;Node9</title>
<g id="a_edge8_Node000008_Node000009"><a xlink:title=" ">
<path fill="none" stroke="#63b8ff" d="M680.34,-191.85C668.64,-190.49 656.78,-189.12 645.5,-187.81"/>
<polygon fill="#63b8ff" stroke="#63b8ff" points="679.65,-195.3 689.99,-192.97 680.46,-188.34 679.65,-195.3"/>
</a>
</g>
</g>
<!-- Node9&#45;&gt;Node5 -->
<g id="edge9_Node000009_Node000005" class="edge">
<title>Node9&#45;&gt;Node5</title>
<g id="a_edge9_Node000009_Node000005"><a xlink:title=" ">
<path fill="none" stroke="#63b8ff" d="M497.51,-169.49C485.98,-167.95 474.14,-166.37 462.71,-164.84"/>
<polygon fill="#63b8ff" stroke="#63b8ff" points="497.04,-172.96 507.41,-170.81 497.96,-166.02 497.04,-172.96"/>
</a>
</g>
</g>
<!-- Node11 -->
<g id="Node000011" class="node">
<title>Node11</title>
<g id="a_Node000011"><a xlink:href="../../d8/d37/class_chat_manager.html#a545045ad462d96e87d64a52e37b4e6df" target="_top" xlink:title=" ">
<polygon fill="white" stroke="#666666" points="844.62,-174 692.88,-174 692.88,-154 844.62,-154 844.62,-174"/>
<text xml:space="preserve" text-anchor="middle" x="768.75" y="-160.5" font-family="Helvetica,sans-Serif" font-size="10.00">ChatManager::emitGroupLeave</text>
</a>
</g>
</g>
<!-- Node10&#45;&gt;Node11 -->
<g id="edge11_Node000010_Node000011" class="edge">
<title>Node10&#45;&gt;Node11</title>
<g id="a_edge11_Node000010_Node000011"><a xlink:title=" ">
<path fill="none" stroke="#63b8ff" d="M873.17,-164C863.81,-164 854.31,-164 845.05,-164"/>
<polygon fill="#63b8ff" stroke="#63b8ff" points="872.97,-167.5 882.97,-164 872.97,-160.5 872.97,-167.5"/>
</a>
</g>
</g>
<!-- Node12 -->
<g id="Node000012" class="node">
<title>Node12</title>
<g id="a_Node000012"><a xlink:href="../../d8/d37/class_chat_manager.html#a727bf7136a525639a887a400f45f28d7" target="_top" xlink:title=" ">
<polygon fill="white" stroke="#666666" points="847.25,-136 690.25,-136 690.25,-116 847.25,-116 847.25,-136"/>
<text xml:space="preserve" text-anchor="middle" x="768.75" y="-122.5" font-family="Helvetica,sans-Serif" font-size="10.00">ChatManager::emitGroupUpdate</text>
</a>
</g>
</g>
<!-- Node10&#45;&gt;Node12 -->
<g id="edge13_Node000010_Node000012" class="edge">
<title>Node10&#45;&gt;Node12</title>
<g id="a_edge13_Node000010_Node000012"><a xlink:title=" ">
<path fill="none" stroke="#63b8ff" d="M892.99,-151.21C869.52,-146.41 843.14,-141.01 820.83,-136.45"/>
<polygon fill="#63b8ff" stroke="#63b8ff" points="892.27,-154.64 902.77,-153.21 893.67,-147.78 892.27,-154.64"/>
</a>
</g>
</g>
<!-- Node11&#45;&gt;Node9 -->
<g id="edge12_Node000011_Node000009" class="edge">
<title>Node11&#45;&gt;Node9</title>
<g id="a_edge12_Node000011_Node000009"><a xlink:title=" ">
<path fill="none" stroke="#63b8ff" d="M681.22,-171.31C669.28,-172.31 657.17,-173.34 645.65,-174.31"/>
<polygon fill="#63b8ff" stroke="#63b8ff" points="681.4,-174.8 691.07,-170.47 680.82,-167.83 681.4,-174.8"/>
</a>
</g>
</g>
<!-- Node13 -->
<g id="Node000013" class="node">
<title>Node13</title>
<g id="a_Node000013"><a xlink:href="../../d8/d37/class_chat_manager.html#a2a7f8794c7ba31096eba399192bba538" target="_top" xlink:title=" ">
<polygon fill="white" stroke="#666666" points="652.75,-146 501.75,-146 501.75,-114 652.75,-114 652.75,-146"/>
<text xml:space="preserve" text-anchor="start" x="509.75" y="-132.5" font-family="Helvetica,sans-Serif" font-size="10.00">ChatManager::renderEditGroup</text>
<text xml:space="preserve" text-anchor="middle" x="577.25" y="-120.5" font-family="Helvetica,sans-Serif" font-size="10.00">Popup</text>
</a>
</g>
</g>
<!-- Node12&#45;&gt;Node13 -->
<g id="edge14_Node000012_Node000013" class="edge">
<title>Node12&#45;&gt;Node13</title>
<g id="a_edge14_Node000012_Node000013"><a xlink:title=" ">
<path fill="none" stroke="#63b8ff" d="M678.38,-127.89C669.92,-128.07 661.4,-128.24 653.1,-128.42"/>
<polygon fill="#63b8ff" stroke="#63b8ff" points="678.42,-131.39 688.34,-127.68 678.27,-124.39 678.42,-131.39"/>
</a>
</g>
</g>
<!-- Node13&#45;&gt;Node5 -->
<g id="edge15_Node000013_Node000005" class="edge">
<title>Node13&#45;&gt;Node5</title>
<g id="a_edge15_Node000013_Node000005"><a xlink:title=" ">
<path fill="none" stroke="#63b8ff" d="M490.3,-141.48C481.1,-142.7 471.81,-143.94 462.78,-145.15"/>
<polygon fill="#63b8ff" stroke="#63b8ff" points="490.49,-144.98 499.94,-140.19 489.56,-138.04 490.49,-144.98"/>
</a>
</g>
</g>
<!-- Node15 -->
<g id="Node000015" class="node">
<title>Node15</title>
<g id="a_Node000015"><a xlink:href="../../d8/d37/class_chat_manager.html#a5d3271287b7cf86e09500f25f93052dc" target="_top" xlink:title=" ">
<polygon fill="white" stroke="#666666" points="848.75,-98 688.75,-98 688.75,-66 848.75,-66 848.75,-98"/>
<text xml:space="preserve" text-anchor="start" x="696.75" y="-84.5" font-family="Helvetica,sans-Serif" font-size="10.00">ChatManager::emitChatMessage</text>
<text xml:space="preserve" text-anchor="middle" x="768.75" y="-72.5" font-family="Helvetica,sans-Serif" font-size="10.00">Frame</text>
</a>
</g>
</g>
<!-- Node14&#45;&gt;Node15 -->
<g id="edge17_Node000014_Node000015" class="edge">
<title>Node14&#45;&gt;Node15</title>
<g id="a_edge17_Node000014_Node000015"><a xlink:title=" ">
<path fill="none" stroke="#63b8ff" d="M882.19,-95.32C871.28,-94.03 860,-92.69 848.98,-91.38"/>
<polygon fill="#63b8ff" stroke="#63b8ff" points="881.54,-98.77 891.89,-96.47 882.37,-91.81 881.54,-98.77"/>
</a>
</g>
</g>
<!-- Node16 -->
<g id="Node000016" class="node">
<title>Node16</title>
<g id="a_Node000016"><a xlink:href="../../d8/d37/class_chat_manager.html#a02d518f4157ae45e4bf43f7501994ecd" target="_top" xlink:title=" ">
<polygon fill="white" stroke="#666666" points="274.25,-83 143.5,-83 143.5,-51 274.25,-51 274.25,-83"/>
<text xml:space="preserve" text-anchor="start" x="151.5" y="-69.5" font-family="Helvetica,sans-Serif" font-size="10.00">ChatManager::renderRight</text>
<text xml:space="preserve" text-anchor="middle" x="208.88" y="-57.5" font-family="Helvetica,sans-Serif" font-size="10.00">Panel</text>
</a>
</g>
</g>
<!-- Node15&#45;&gt;Node16 -->
<g id="edge18_Node000015_Node000016" class="edge">
<title>Node15&#45;&gt;Node16</title>
<g id="a_edge18_Node000015_Node000016"><a xlink:title=" ">
<path fill="none" stroke="#63b8ff" d="M677.05,-79.56C564.09,-76.52 373.9,-71.41 274.62,-68.74"/>
<polygon fill="#63b8ff" stroke="#63b8ff" points="676.81,-83.06 686.9,-79.83 677,-76.06 676.81,-83.06"/>
</a>
</g>
</g>
<!-- Node17 -->
<g id="Node000017" class="node">
<title>Node17</title>
<g id="a_Node000017"><a xlink:href="../../d8/d37/class_chat_manager.html#a5596a59f560f4f30aca7ac68a8b58451" target="_top" xlink:title=" ">
<polygon fill="white" stroke="#666666" points="650.88,-58 503.62,-58 503.62,-26 650.88,-26 650.88,-58"/>
<text xml:space="preserve" text-anchor="start" x="511.62" y="-44.5" font-family="Helvetica,sans-Serif" font-size="10.00">ChatManager::tryHandleSlash</text>
<text xml:space="preserve" text-anchor="middle" x="577.25" y="-32.5" font-family="Helvetica,sans-Serif" font-size="10.00">Command</text>
</a>
</g>
</g>
<!-- Node15&#45;&gt;Node17 -->
<g id="edge20_Node000015_Node000017" class="edge">
<title>Node15&#45;&gt;Node17</title>
<g id="a_edge20_Node000015_Node000017"><a xlink:title=" ">
<path fill="none" stroke="#63b8ff" d="M678.7,-63.2C669.52,-61.26 660.26,-59.31 651.27,-57.41"/>
<polygon fill="#63b8ff" stroke="#63b8ff" points="677.86,-66.6 688.37,-65.24 679.31,-59.75 677.86,-66.6"/>
</a>
</g>
</g>
<!-- Node16&#45;&gt;Node6 -->
<g id="edge19_Node000016_Node000006" class="edge">
<title>Node16&#45;&gt;Node6</title>
<g id="a_edge19_Node000016_Node000006"><a xlink:title=" ">
<path fill="none" stroke="#63b8ff" d="M132.11,-77.89C123.82,-79.08 115.51,-80.27 107.58,-81.41"/>
<polygon fill="#63b8ff" stroke="#63b8ff" points="132.48,-81.37 141.88,-76.48 131.49,-74.44 132.48,-81.37"/>
</a>
</g>
</g>
<!-- Node17&#45;&gt;Node16 -->
<g id="edge23_Node000017_Node000016" class="edge">
<title>Node17&#45;&gt;Node16</title>
<g id="a_edge23_Node000017_Node000016"><a xlink:title=" ">
<path fill="none" stroke="#63b8ff" d="M492.2,-47.74C426.03,-52.25 335.17,-58.45 274.58,-62.58"/>
<polygon fill="#63b8ff" stroke="#63b8ff" points="492.18,-51.24 501.92,-47.07 491.7,-44.26 492.18,-51.24"/>
</a>
</g>
</g>
<!-- Node18 -->
<g id="Node000018" class="node">
<title>Node18</title>
<g id="a_Node000018"><a xlink:href="../../d8/d37/class_chat_manager.html#a5b19f0632a911a519401b1b40e70db7c" target="_top" xlink:title=" ">
<polygon fill="white" stroke="#666666" points="465.75,-20 310.25,-20 310.25,0 465.75,0 465.75,-20"/>
<text xml:space="preserve" text-anchor="middle" x="388" y="-6.5" font-family="Helvetica,sans-Serif" font-size="10.00">ChatManager::renderDicePopup</text>
</a>
</g>
</g>
<!-- Node17&#45;&gt;Node18 -->
<g id="edge21_Node000017_Node000018" class="edge">
<title>Node17&#45;&gt;Node18</title>
<g id="a_edge21_Node000017_Node000018"><a xlink:title=" ">
<path fill="none" stroke="#63b8ff" d="M492.09,-27.62C477.99,-25.21 463.6,-22.75 450.21,-20.46"/>
<polygon fill="#63b8ff" stroke="#63b8ff" points="491.38,-31.05 501.83,-29.28 492.56,-24.15 491.38,-31.05"/>
</a>
</g>
</g>
<!-- Node18&#45;&gt;Node16 -->
<g id="edge22_Node000018_Node000016" class="edge">
<title>Node18&#45;&gt;Node16</title>
<g id="a_edge22_Node000018_Node000016"><a xlink:title=" ">
<path fill="none" stroke="#63b8ff" d="M342.59,-23.77C331.99,-27.09 320.71,-30.65 310.25,-34 293.66,-39.32 275.56,-45.24 259.35,-50.58"/>
<polygon fill="#63b8ff" stroke="#63b8ff" points="343.4,-27.18 351.9,-20.86 341.31,-20.5 343.4,-27.18"/>
</a>
</g>
</g>
</g>
</svg>
