<?xml version="1.0" encoding="UTF-8" standalone="no"?>
<!DOCTYPE svg PUBLIC "-//W3C//DTD SVG 1.1//EN"
 "http://www.w3.org/Graphics/SVG/1.1/DTD/svg11.dtd">
<!-- Generated by graphviz version 14.0.2 (20251019.1705)
 -->
<!-- Title: msg::makeChatGroupUpdate Pages: 1 -->
<!--zoomable 90 -->

<svg id="main" version="1.1" xmlns="http://www.w3.org/2000/svg" xmlns:xlink="http://www.w3.org/1999/xlink" xml:space="preserve" onload="init(evt)">
<style type="text/css"><![CDATA[
.node, .edge {opacity: 0.7;}
.node.selected, .edge.selected {opacity: 1;}
.edge:hover path { stroke: red; }
.edge:hover polygon { stroke: red; fill: red; }
]]></style>

<defs>
  <circle id="rim" cx="0" cy="0" r="7"/>
  <circle id="rim2" cx="0" cy="0" r="3.5"/>
  <g id="zoomPlus">
    <use xlink:href="#rim" fill="#404040"><set attributeName="fill" to="#808080" begin="zoomplus.mouseover" end="zoomplus.mouseout"/></use>
    <path d="M-4,0h8M0,-4v8" fill="none" stroke="white" stroke-width="1.5" pointer-events="none"/>
  </g>
  <g id="zoomMin">
    <use xlink:href="#rim" fill="#404040"><set attributeName="fill" to="#808080" begin="zoomminus.mouseover" end="zoomminus.mouseout"/></use>
    <path d="M-4,0h8" fill="none" stroke="white" stroke-width="1.5" pointer-events="none"/>
  </g>
  <g id="arrowUp" transform="translate(30 24)">
    <use xlink:href="#rim"/>
    <path pointer-events="none" fill="none" stroke="white" stroke-width="1.5" d="M0,-3.0v7 M-2.5,-0.5L0,-3.0L2.5,-0.5"/>
  </g>
  <g id="arrowRight" transform="rotate(90) translate(36 -43)">
    <use xlink:href="#rim"/>
    <path pointer-events="none" fill="none" stroke="white" stroke-width="1.5" d="M0,-3.0v7 M-2.5,-0.5L0,-3.0L2.5,-0.5"/>
  </g>
  <g id="arrowDown" transform="rotate(180) translate(-30 -48)">
    <use xlink:href="#rim"/>
    <path pointer-events="none" fill="none" stroke="white" stroke-width="1.5" d="M0,-3.0v7 M-2.5,-0.5L0,-3.0L2.5,-0.5"/>
  </g>
  <g id="arrowLeft" transform="rotate(270) translate(-36 17)">
    <use xlink:href="#rim"/>
    <path pointer-events="none" fill="none" stroke="white" stroke-width="1.5" d="M0,-3.0v7 M-2.5,-0.5L0,-3.0L2.5,-0.5"/>
  </g>
  <g id="resetDef">
    <use xlink:href="#rim2" fill="#404040"><set attributeName="fill" to="#808080" begin="reset.mouseover" end="reset.mouseout"/></use>
  </g>
</defs>
<script type="application/ecmascript">
var viewWidth = 860;
var viewHeight = 90;
var sectionId = 'dynsection-14';
</script>
<script type="application/ecmascript" xlink:href="../../svg.min.js"/>
<svg id="graph" class="graph">
<g id="viewport">
<title>msg::makeChatGroupUpdate</title>
<!-- Node1 -->
<g id="Node000001" class="node">
<title>Node1</title>
<g id="a_Node000001"><a xlink:title=" ">
<polygon fill="#999999" stroke="#666666" points="851.75,-51 708.25,-51 708.25,-31 851.75,-31 851.75,-51"/>
<text xml:space="preserve" text-anchor="middle" x="780" y="-37.5" font-family="Helvetica,sans-Serif" font-size="10.00">msg::makeChatGroupUpdate</text>
</a>
</g>
</g>
<!-- Node2 -->
<g id="Node000002" class="node">
<title>Node2</title>
<g id="a_Node000002"><a xlink:href="../../d8/d37/class_chat_manager.html#a545045ad462d96e87d64a52e37b4e6df" target="_top" xlink:title=" ">
<polygon fill="white" stroke="#666666" points="669.62,-73 517.88,-73 517.88,-53 669.62,-53 669.62,-73"/>
<text xml:space="preserve" text-anchor="middle" x="593.75" y="-59.5" font-family="Helvetica,sans-Serif" font-size="10.00">ChatManager::emitGroupLeave</text>
</a>
</g>
</g>
<!-- Node1&#45;&gt;Node2 -->
<g id="edge1_Node000001_Node000002" class="edge">
<title>Node1&#45;&gt;Node2</title>
<g id="a_edge1_Node000001_Node000002"><a xlink:title=" ">
<path fill="none" stroke="#63b8ff" d="M696.35,-50.87C687.6,-51.91 678.73,-52.97 670.07,-54.01"/>
<polygon fill="#63b8ff" stroke="#63b8ff" points="696.75,-54.35 706.26,-49.69 695.92,-47.4 696.75,-54.35"/>
</a>
</g>
</g>
<!-- Node6 -->
<g id="Node000006" class="node">
<title>Node6</title>
<g id="a_Node000006"><a xlink:href="../../d8/d37/class_chat_manager.html#a727bf7136a525639a887a400f45f28d7" target="_top" xlink:title=" ">
<polygon fill="white" stroke="#666666" points="672.25,-32 515.25,-32 515.25,-12 672.25,-12 672.25,-32"/>
<text xml:space="preserve" text-anchor="middle" x="593.75" y="-18.5" font-family="Helvetica,sans-Serif" font-size="10.00">ChatManager::emitGroupUpdate</text>
</a>
</g>
</g>
<!-- Node1&#45;&gt;Node6 -->
<g id="edge5_Node000001_Node000006" class="edge">
<title>Node1&#45;&gt;Node6</title>
<g id="a_edge5_Node000001_Node000006"><a xlink:title=" ">
<path fill="none" stroke="#63b8ff" d="M696.55,-32.5C688.56,-31.67 680.47,-30.84 672.52,-30.02"/>
<polygon fill="#63b8ff" stroke="#63b8ff" points="695.95,-35.95 706.26,-33.5 696.67,-28.99 695.95,-35.95"/>
</a>
</g>
</g>
<!-- Node3 -->
<g id="Node000003" class="node">
<title>Node3</title>
<g id="a_Node000003"><a xlink:href="../../d8/d37/class_chat_manager.html#a9526a187231f0c74492dfc0c575f3afa" target="_top" xlink:title=" ">
<polygon fill="white" stroke="#666666" points="471.75,-82 335.75,-82 335.75,-50 471.75,-50 471.75,-82"/>
<text xml:space="preserve" text-anchor="start" x="343.75" y="-68.5" font-family="Helvetica,sans-Serif" font-size="10.00">ChatManager::renderDelete</text>
<text xml:space="preserve" text-anchor="middle" x="403.75" y="-56.5" font-family="Helvetica,sans-Serif" font-size="10.00">GroupPopup</text>
</a>
</g>
</g>
<!-- Node2&#45;&gt;Node3 -->
<g id="edge2_Node000002_Node000003" class="edge">
<title>Node2&#45;&gt;Node3</title>
<g id="a_edge2_Node000002_Node000003"><a xlink:title=" ">
<path fill="none" stroke="#63b8ff" d="M506.26,-64.38C494.81,-64.56 483.21,-64.75 472.14,-64.92"/>
<polygon fill="#63b8ff" stroke="#63b8ff" points="506.18,-67.88 516.12,-64.22 506.07,-60.88 506.18,-67.88"/>
</a>
</g>
</g>
<!-- Node4 -->
<g id="Node000004" class="node">
<title>Node4</title>
<g id="a_Node000004"><a xlink:href="../../d8/d37/class_chat_manager.html#afb35f5cfd70af565c23555f8652cacf3" target="_top" xlink:title=" ">
<polygon fill="white" stroke="#666666" points="292.25,-51 143.5,-51 143.5,-31 292.25,-31 292.25,-51"/>
<text xml:space="preserve" text-anchor="middle" x="217.88" y="-37.5" font-family="Helvetica,sans-Serif" font-size="10.00">ChatManager::renderLeftPanel</text>
</a>
</g>
</g>
<!-- Node3&#45;&gt;Node4 -->
<g id="edge3_Node000003_Node000004" class="edge">
<title>Node3&#45;&gt;Node4</title>
<g id="a_edge3_Node000003_Node000004"><a xlink:title=" ">
<path fill="none" stroke="#63b8ff" d="M324.07,-55.3C313.59,-53.88 302.88,-52.42 292.49,-51.01"/>
<polygon fill="#63b8ff" stroke="#63b8ff" points="323.45,-58.75 333.83,-56.63 324.39,-51.81 323.45,-58.75"/>
</a>
</g>
</g>
<!-- Node5 -->
<g id="Node000005" class="node">
<title>Node5</title>
<g id="a_Node000005"><a xlink:href="../../d8/d37/class_chat_manager.html#ae22b90f106a6b559be6533fda6c54fa5" target="_top" xlink:title=" ">
<polygon fill="white" stroke="#666666" points="107.5,-51 0,-51 0,-31 107.5,-31 107.5,-51"/>
<text xml:space="preserve" text-anchor="middle" x="53.75" y="-37.5" font-family="Helvetica,sans-Serif" font-size="10.00">ChatManager::render</text>
</a>
</g>
</g>
<!-- Node4&#45;&gt;Node5 -->
<g id="edge4_Node000004_Node000005" class="edge">
<title>Node4&#45;&gt;Node5</title>
<g id="a_edge4_Node000004_Node000005"><a xlink:title=" ">
<path fill="none" stroke="#63b8ff" d="M132.06,-41C123.74,-41 115.47,-41 107.61,-41"/>
<polygon fill="#63b8ff" stroke="#63b8ff" points="131.89,-44.5 141.89,-41 131.89,-37.5 131.89,-44.5"/>
</a>
</g>
</g>
<!-- Node7 -->
<g id="Node000007" class="node">
<title>Node7</title>
<g id="a_Node000007"><a xlink:href="../../d8/d37/class_chat_manager.html#a2a7f8794c7ba31096eba399192bba538" target="_top" xlink:title=" ">
<polygon fill="white" stroke="#666666" points="479.25,-32 328.25,-32 328.25,0 479.25,0 479.25,-32"/>
<text xml:space="preserve" text-anchor="start" x="336.25" y="-18.5" font-family="Helvetica,sans-Serif" font-size="10.00">ChatManager::renderEditGroup</text>
<text xml:space="preserve" text-anchor="middle" x="403.75" y="-6.5" font-family="Helvetica,sans-Serif" font-size="10.00">Popup</text>
</a>
</g>
</g>
<!-- Node6&#45;&gt;Node7 -->
<g id="edge6_Node000006_Node000007" class="edge">
<title>Node6&#45;&gt;Node7</title>
<g id="a_edge6_Node000006_Node000007"><a xlink:title=" ">
<path fill="none" stroke="#63b8ff" d="M503.58,-19.15C495.52,-18.9 487.41,-18.64 479.49,-18.39"/>
<polygon fill="#63b8ff" stroke="#63b8ff" points="503.31,-22.65 513.41,-19.47 503.53,-15.65 503.31,-22.65"/>
</a>
</g>
</g>
<!-- Node7&#45;&gt;Node4 -->
<g id="edge7_Node000007_Node000004" class="edge">
<title>Node7&#45;&gt;Node4</title>
<g id="a_edge7_Node000007_Node000004"><a xlink:title=" ">
<path fill="none" stroke="#63b8ff" d="M316.69,-27.7C308.67,-28.79 300.6,-29.89 292.7,-30.96"/>
<polygon fill="#63b8ff" stroke="#63b8ff" points="317.02,-31.19 326.46,-26.37 316.08,-24.25 317.02,-31.19"/>
</a>
</g>
</g>
</g>
</svg>

<g id="navigator" transform="translate(0 0)" fill="#404254">
  <rect fill="#f2f5e9" fill-opacity="0.5" stroke="#606060" stroke-width=".5" x="0" y="0" width="60" height="60"/>
  <use id="zoomplus" xlink:href="#zoomPlus" x="17" y="9" onmousedown="handleZoom(evt,'in')"/>
  <use id="zoomminus" xlink:href="#zoomMin" x="42" y="9" onmousedown="handleZoom(evt,'out')"/>
  <use id="reset" xlink:href="#resetDef" x="30" y="36" onmousedown="handleReset()"/>
   <use id="arrowup" xlink:href="#arrowUp" x="0" y="0" onmousedown="handlePan(0,-1)"/>
  <use id="arrowright" xlink:href="#arrowRight" x="0" y="0" onmousedown="handlePan(1,0)"/>
  <use id="arrowdown" xlink:href="#arrowDown" x="0" y="0" onmousedown="handlePan(0,1)"/>
  <use id="arrowleft" xlink:href="#arrowLeft" x="0" y="0" onmousedown="handlePan(-1,0)"/>
</g>
<svg viewBox="0 0 15 15" width="100%" height="30px" preserveAspectRatio="xMaxYMin meet">
 <g id="arrow_out" transform="scale(0.3 0.3)">
  <a xlink:href="namespacemsg_a24e8339bdeb6b6a9847b7134e8e016ad_icgraph_org.svg" target="_base">
   <rect id="button" ry="5" rx="5" y="6" x="6" height="38" width="38"
        fill="#f2f5e9" fill-opacity="0.5" stroke="#606060" stroke-width="1.0"/>
   <path id="arrow"
     d="M 11.500037,31.436501 C 11.940474,20.09759 22.043105,11.32322 32.158766,21.979434 L 37.068811,17.246167 C 37.068811,17.246167 37.088388,32 37.088388,32 L 22.160133,31.978069 C 22.160133,31.978069 26.997745,27.140456 26.997745,27.140456 C 18.528582,18.264221 13.291696,25.230495 11.500037,31.436501 z"
     style="fill:#404040;"/>
  </a>
 </g>
</svg>

<style type='text/css'>
<![CDATA[
[data-mouse-over-selected='false'] { opacity: 0.7; }
[data-mouse-over-selected='true']  { opacity: 1.0; }
]]>
</style>
<script type="application/ecmascript"><![CDATA[
document.addEventListener('DOMContentLoaded', (event) => {
  highlightEdges();
  highlightAdjacentNodes();
});
]]></script>
</svg>
