<?xml version="1.0" encoding="UTF-8" standalone="no"?>
<!DOCTYPE svg PUBLIC "-//W3C//DTD SVG 1.1//EN"
 "http://www.w3.org/Graphics/SVG/1.1/DTD/svg11.dtd">
<!-- Generated by graphviz version 14.0.2 (20251019.1705)
 -->
<!-- Title: Graphical Class Hierarchy Pages: 1 -->
<svg width="246pt" height="142pt"
 viewBox="0.00 0.00 246.00 142.00" xmlns="http://www.w3.org/2000/svg" xmlns:xlink="http://www.w3.org/1999/xlink">
<g id="graph0" class="graph" transform="scale(1 1) rotate(0) translate(4 138)">
<title>Graphical Class Hierarchy</title>
<!-- Node0 -->
<g id="Node000000" class="node">
<title>Node0</title>
<g id="a_Node000000"><a xlink:title=" ">
<polygon fill="#e0e0e0" stroke="#999999" points="98.5,-83 0,-83 0,-51 98.5,-51 98.5,-83"/>
<text xml:space="preserve" text-anchor="start" x="8" y="-69.5" font-family="Helvetica,sans-Serif" font-size="10.00">std::enable_shared</text>
<text xml:space="preserve" text-anchor="middle" x="49.25" y="-57.5" font-family="Helvetica,sans-Serif" font-size="10.00">_from_this</text>
</a>
</g>
</g>
<!-- Node1 -->
<g id="Node000001" class="node">
<title>Node1</title>
<g id="a_Node000001"><a xlink:href="d2/dbf/class_board_manager.html" target="_top" xlink:title=" ">
<polygon fill="white" stroke="#666666" points="225.5,-134 146.5,-134 146.5,-114 225.5,-114 225.5,-134"/>
<text xml:space="preserve" text-anchor="middle" x="186" y="-120.5" font-family="Helvetica,sans-Serif" font-size="10.00">BoardManager</text>
</a>
</g>
</g>
<!-- Node0&#45;&gt;Node1 -->
<g id="edge2_Node000000_Node000001" class="edge">
<title>Node0&#45;&gt;Node1</title>
<g id="a_edge2_Node000000_Node000001"><a xlink:title=" ">
<path fill="none" stroke="#8b1a1a" d="M95.52,-88.06C108.07,-93.72 121.76,-99.73 134.5,-105 141.51,-107.9 149.14,-110.86 156.3,-113.56"/>
<polygon fill="#8b1a1a" stroke="#8b1a1a" points="97.21,-84.98 86.66,-84.03 94.32,-91.36 97.21,-84.98"/>
</a>
</g>
</g>
<!-- Node2 -->
<g id="Node000002" class="node">
<title>Node2</title>
<g id="a_Node000002"><a xlink:href="d8/d37/class_chat_manager.html" target="_top" xlink:title=" ">
<polygon fill="white" stroke="#666666" points="223.25,-96 148.75,-96 148.75,-76 223.25,-76 223.25,-96"/>
<text xml:space="preserve" text-anchor="middle" x="186" y="-82.5" font-family="Helvetica,sans-Serif" font-size="10.00">ChatManager</text>
</a>
</g>
</g>
<!-- Node0&#45;&gt;Node2 -->
<g id="edge3_Node000000_Node000002" class="edge">
<title>Node0&#45;&gt;Node2</title>
<g id="a_edge3_Node000000_Node000002"><a xlink:title=" ">
<path fill="none" stroke="#63b8ff" d="M110.16,-75.45C123.14,-77.28 136.5,-79.16 148.27,-80.82"/>
<polygon fill="#63b8ff" stroke="#63b8ff" points="110.79,-72 100.4,-74.07 109.81,-78.93 110.79,-72"/>
</a>
</g>
</g>
<!-- Node3 -->
<g id="Node000003" class="node">
<title>Node3</title>
<g id="a_Node000003"><a xlink:href="df/d93/class_game_table_manager.html" target="_top" xlink:title=" ">
<polygon fill="white" stroke="#666666" points="237.5,-58 134.5,-58 134.5,-38 237.5,-38 237.5,-58"/>
<text xml:space="preserve" text-anchor="middle" x="186" y="-44.5" font-family="Helvetica,sans-Serif" font-size="10.00">GameTableManager</text>
</a>
</g>
</g>
<!-- Node0&#45;&gt;Node3 -->
<g id="edge4_Node000000_Node000003" class="edge">
<title>Node0&#45;&gt;Node3</title>
<g id="a_edge4_Node000000_Node000003"><a xlink:title=" ">
<path fill="none" stroke="#63b8ff" d="M110.1,-58.56C118.13,-57.43 126.3,-56.28 134.15,-55.17"/>
<polygon fill="#63b8ff" stroke="#63b8ff" points="109.81,-55.07 100.4,-59.93 110.79,-62 109.81,-55.07"/>
</a>
</g>
</g>
<!-- Node4 -->
<g id="Node000004" class="node">
<title>Node4</title>
<g id="a_Node000004"><a xlink:href="da/d21/class_network_manager.html" target="_top" xlink:title=" ">
<polygon fill="white" stroke="#666666" points="231.12,-20 140.88,-20 140.88,0 231.12,0 231.12,-20"/>
<text xml:space="preserve" text-anchor="middle" x="186" y="-6.5" font-family="Helvetica,sans-Serif" font-size="10.00">NetworkManager</text>
</a>
</g>
</g>
<!-- Node0&#45;&gt;Node4 -->
<g id="edge5_Node000000_Node000004" class="edge">
<title>Node0&#45;&gt;Node4</title>
<g id="a_edge5_Node000000_Node000004"><a xlink:title=" ">
<path fill="none" stroke="#63b8ff" d="M95.52,-45.94C108.07,-40.28 121.76,-34.27 134.5,-29 141.51,-26.1 149.14,-23.14 156.3,-20.44"/>
<polygon fill="#63b8ff" stroke="#63b8ff" points="94.32,-42.64 86.66,-49.97 97.21,-49.02 94.32,-42.64"/>
</a>
</g>
</g>
</g>
</svg>
